<?xml version="1.0" standalone="no"?>
<!DOCTYPE svg PUBLIC "-//W3C//DTD SVG 20010904//EN"
 "http://www.w3.org/TR/2001/REC-SVG-20010904/DTD/svg10.dtd">
<svg version="1.0" xmlns="http://www.w3.org/2000/svg"
 width="256.000000pt" height="256.000000pt" viewBox="0 0 256.000000 256.000000"
 preserveAspectRatio="xMidYMid meet">

<g transform="translate(0.000000,256.000000) scale(0.100000,-0.100000)"
fill="#000000" stroke="none">
<path d="M1 2328 c1 -168 4 -213 9 -161 10 96 33 158 78 218 75 99 166 149
300 165 49 5 6 8 -160 9 l-228 1 1 -232z"/>
<path d="M2154 2549 c43 -5 99 -15 125 -24 49 -16 103 -52 80 -52 -14 0 -50
-15 -177 -76 l-73 -35 50 -17 c62 -20 133 -82 159 -138 12 -23 24 -67 27 -97
l7 -56 -201 -97 -201 -97 35 -48 c40 -56 112 -204 121 -247 6 -31 5 -31 -92
-73 -97 -43 -104 -43 -117 -8 -2 5 -54 -27 -116 -72 -62 -45 -119 -82 -127
-82 -29 0 -81 -33 -78 -49 3 -11 -33 -44 -114 -103 l-117 -88 -26 29 c-15 16
-28 34 -31 41 -2 8 -21 4 -62 -14 -32 -14 -65 -26 -73 -26 -8 0 19 -38 61 -85
84 -94 97 -129 72 -189 -8 -20 -22 -39 -30 -42 -8 -3 -46 16 -88 44 -158 108
-301 168 -324 137 -5 -7 -78 -43 -162 -81 -127 -55 -156 -65 -164 -53 -23 33
-88 178 -99 222 -6 27 -15 44 -18 39 -3 -6 -48 -30 -98 -55 l-93 -46 -1 67
c-1 37 -4 131 -8 208 l-6 142 -97 -47 -98 -46 0 -667 0 -668 1280 0 1280 0 0
1280 0 1280 -242 -1 c-192 -1 -226 -3 -164 -10z"/>
</g>
</svg>
